<svg version="1.1" id="Layer_1" xmlns="http://www.w3.org/2000/svg" xmlns:xlink="http://www.w3.org/1999/xlink" x="0px" y="0px"
	 width="100%" viewBox="0 0 976 976" enable-background="new 0 0 976 976" xml:space="preserve">
<path fill="#000000" opacity="1.000000" stroke="none" 
	d="
M403.527344,720.572083 
	C328.844330,690.371399 279.511566,637.125061 255.568192,560.639709 
	C246.259277,530.903076 243.855774,500.334076 246.567032,469.298401 
	C251.520004,412.601929 273.731232,363.515808 312.584625,322.263977 
	C350.352448,282.164703 396.793640,257.339783 451.293762,248.761673 
	C516.175232,238.549561 576.413757,251.525955 630.479553,288.994171 
	C685.588135,327.185089 720.138611,379.695007 732.162598,445.750732 
	C745.650330,519.847778 728.808228,587.213318 681.397888,645.862671 
	C642.377319,694.133606 591.591614,723.465637 530.095337,733.399231 
	C486.964081,740.366394 444.831787,736.129517 403.527344,720.572083 
M642.461060,324.044861 
	C590.228333,278.052429 529.425659,258.688324 460.479614,267.623383 
	C407.218140,274.525757 361.931671,298.371307 325.598907,338.065399 
	C281.912262,385.793732 262.058014,442.189819 266.158020,506.904663 
	C268.333740,541.246643 278.336761,573.184265 295.358002,602.991150 
	C296.455322,604.912720 297.099823,607.374939 299.969604,608.249817 
	C353.642883,557.800781 417.019165,530.635315 491.184601,530.737305 
	C565.412048,530.839417 628.921387,558.027832 682.726257,609.080627 
	C683.948975,607.256958 684.744568,606.206970 685.398499,605.075134 
	C715.111023,553.655273 723.839844,498.832916 710.888489,440.926788 
	C700.632019,395.069580 677.561951,356.354675 642.461060,324.044861 
z"/>
<path fill="#000000" opacity="1.000000" stroke="none" 
	d="
M507.537415,314.167603 
	C547.656738,322.449341 575.656494,353.152496 580.165161,393.466309 
	C585.329102,439.638611 550.767151,484.062622 504.751709,490.398651 
	C457.885803,496.851776 416.340088,470.082977 404.463409,424.312439 
	C390.640625,371.041931 426.828796,320.735748 478.296234,313.575958 
	C487.976288,312.229340 497.537018,312.445221 507.537415,314.167603 
z"/>
</svg>