<?xml version="1.0" standalone="no"?>
<!DOCTYPE svg PUBLIC "-//W3C//DTD SVG 20010904//EN"
 "http://www.w3.org/TR/2001/REC-SVG-20010904/DTD/svg10.dtd">
<svg version="1.0" xmlns="http://www.w3.org/2000/svg"
 width="300.000000pt" height="245.000000pt" viewBox="0 0 300.000000 245.000000"
 preserveAspectRatio="xMidYMid meet">
<metadata>
Created by potrace 1.10, written by Peter Selinger 2001-2011
</metadata>
<g transform="translate(0.000000,245.000000) scale(0.100000,-0.100000)"
fill="#000000" stroke="none">
<path d="M1458 2254 c-7 -16 -18 -33 -25 -37 -27 -17 -12 -44 20 -38 14 2 2
-22 -15 -32 -23 -15 -48 -1 -48 28 0 15 -6 25 -14 25 -23 0 -29 -20 -12 -38
20 -23 6 -45 -25 -40 -18 2 -23 9 -22 24 2 17 -4 23 -25 27 -37 7 -38 3 -9
-33 14 -16 29 -39 32 -51 6 -17 11 -19 38 -12 40 10 191 10 238 0 34 -7 37 -5
48 22 7 16 22 39 33 51 24 26 22 30 -15 23 -21 -4 -27 -10 -25 -27 2 -16 -3
-22 -25 -24 -19 -2 -29 2 -34 14 -4 10 -2 19 5 22 20 6 15 44 -5 40 -12 -2
-18 -13 -18 -28 0 -21 -5 -25 -30 -25 -22 0 -31 5 -33 20 -2 11 -1 17 3 13 12
-12 35 11 28 28 -3 8 -10 14 -17 14 -6 0 -12 10 -13 21 -3 38 -21 45 -35 13z"/>
<path d="M1088 2073 c-23 -25 -23 -56 0 -76 22 -21 42 -21 67 -3 17 12 17 13
-8 20 -14 3 -34 3 -44 -1 -16 -6 -16 -5 -5 10 7 8 12 28 10 43 -3 26 -3 26
-20 7z"/>
<path d="M1750 2075 c0 -16 18 -30 48 -38 24 -6 31 14 10 30 -22 17 -58 22
-58 8z"/>
<path d="M1834 2066 c3 -13 9 -32 13 -42 4 -11 3 -15 -5 -10 -13 8 -62 -3 -62
-14 0 -5 9 -12 20 -15 52 -17 94 36 65 81 -20 31 -39 31 -31 0z"/>
<path d="M1136 2061 c-15 -16 -15 -19 -1 -24 20 -8 38 -1 53 23 11 18 10 20
-11 20 -13 0 -32 -8 -41 -19z"/>
<path d="M1020 2019 c-26 -48 19 -102 66 -80 13 6 24 15 24 20 0 13 -43 22
-54 11 -6 -6 -14 -10 -20 -10 -6 0 -5 5 2 12 14 14 16 68 2 68 -5 0 -14 -9
-20 -21z"/>
<path d="M1896 2022 c-4 -12 -2 -31 4 -42 11 -20 10 -21 -9 -10 -15 8 -27 8
-42 -1 l-21 -11 21 -15 c51 -35 111 31 71 79 l-17 22 -7 -22z"/>
<path d="M1350 2006 c-82 -22 -144 -60 -215 -131 -104 -104 -145 -199 -145
-340 0 -133 40 -232 132 -331 193 -206 514 -206 705 0 182 196 177 484 -11
672 -98 97 -211 145 -345 143 -42 0 -96 -6 -121 -13z m209 -46 c158 -30 290
-157 333 -319 28 -108 20 -188 -32 -304 l-21 -48 -22 32 c-16 23 -42 40 -96
61 -40 16 -74 27 -75 26 -1 -2 -11 -23 -22 -48 -21 -49 -123 -160 -147 -160
-27 0 -113 88 -146 149 l-32 60 -52 -20 c-29 -12 -65 -26 -81 -31 -16 -7 -33
-23 -41 -41 l-13 -31 -21 42 c-91 179 -54 396 92 528 104 94 237 131 376 104z
m-206 -690 c21 -27 58 -62 83 -76 l44 -26 32 24 c44 31 58 46 107 112 26 35
49 56 61 56 26 0 114 -48 140 -75 l20 -22 -21 -27 c-32 -41 -117 -99 -184
-127 -50 -20 -77 -24 -160 -24 -62 0 -113 5 -135 14 -94 37 -143 67 -186 113
l-47 50 33 32 c19 17 57 41 84 53 l51 22 20 -24 c11 -13 37 -47 58 -75z"/>
<path d="M1348 1836 l-126 -72 53 -32 c29 -18 55 -32 58 -32 11 0 -6 39 -19
44 -23 9 -16 32 14 47 15 7 53 29 86 48 65 37 64 38 161 -24 22 -14 48 -28 58
-31 23 -8 22 -35 -3 -41 -18 -5 -30 -43 -13 -43 7 0 103 60 103 65 0 2 -46 29
-102 61 -57 31 -112 63 -123 70 -17 10 -36 3 -147 -60z"/>
<path d="M1348 1705 c4 -40 2 -44 -14 -38 -15 6 -16 2 -10 -38 4 -24 13 -49
20 -54 18 -14 46 -81 46 -110 0 -18 -8 -26 -35 -35 -19 -6 -35 -14 -35 -17 0
-3 16 -31 35 -63 35 -57 96 -120 116 -120 24 0 81 56 119 117 23 36 40 66 38
68 -2 2 -20 10 -40 18 -27 11 -36 20 -32 31 7 19 -9 21 -25 3 -8 -10 -4 -20
18 -41 32 -31 33 -55 4 -89 -77 -89 -87 -89 -158 0 -27 34 -24 65 9 92 25 21
19 65 -19 137 -27 51 -33 70 -25 84 14 26 13 63 -3 83 -10 15 -12 11 -9 -28z"/>
<path d="M1584 1717 c-7 -13 -8 -32 -1 -60 8 -39 6 -46 -31 -107 -22 -36 -38
-67 -36 -69 10 -11 59 39 62 62 2 15 9 27 17 27 14 0 35 50 35 83 0 13 -5 17
-14 14 -11 -4 -16 4 -18 31 -3 32 -5 34 -14 19z"/>
<path d="M1265 1682 c-4 -24 -17 -52 -28 -63 -18 -16 -18 -19 -4 -25 10 -3 23
-4 31 -1 16 6 26 72 16 107 -7 22 -9 20 -15 -18z"/>
<path d="M1954 1966 c-3 -14 -4 -32 -1 -40 4 -11 -3 -13 -36 -8 l-42 5 19 -22
c50 -56 127 12 81 73 -13 18 -14 17 -21 -8z"/>
<path d="M963 1960 c-29 -45 27 -97 76 -70 33 17 25 33 -14 28 -29 -3 -34 -1
-30 13 6 17 -3 49 -14 49 -3 0 -12 -9 -18 -20z"/>
<path d="M913 1897 c-26 -57 49 -104 92 -57 18 20 18 20 -11 20 -17 0 -35 -5
-40 -10 -7 -7 -11 -1 -11 20 0 42 -17 57 -30 27z"/>
<path d="M2004 1895 c-3 -14 -4 -32 0 -40 3 -8 1 -15 -4 -15 -6 0 -10 5 -10
10 0 6 -13 10 -30 10 -16 0 -30 -4 -30 -8 0 -17 26 -32 57 -32 39 0 57 27 48
71 -8 36 -22 38 -31 4z"/>
<path d="M2051 1832 c-6 -11 -11 -31 -11 -43 0 -21 -1 -21 -18 -6 -10 10 -28
17 -41 17 -20 0 -21 -1 -6 -24 22 -33 71 -40 91 -12 16 23 18 54 5 75 -7 11
-11 10 -20 -7z"/>
<path d="M866 1818 c-8 -33 24 -74 55 -70 25 4 59 29 59 44 0 13 -34 9 -58 -7
-18 -14 -21 -14 -16 -1 6 16 -12 56 -25 56 -5 0 -11 -10 -15 -22z"/>
<path d="M836 1745 c-9 -36 16 -75 49 -75 25 0 65 31 65 50 0 19 -39 10 -54
-12 -15 -21 -16 -21 -16 -3 0 11 -9 31 -19 44 l-18 24 -7 -28z"/>
<path d="M2088 1753 c-10 -11 -18 -29 -18 -41 0 -22 0 -22 -20 -2 -23 23 -50
26 -50 6 0 -18 38 -46 61 -46 27 0 51 35 47 70 -3 32 -3 32 -20 13z"/>
<path d="M810 1657 c0 -53 53 -85 92 -54 16 12 34 57 23 57 -17 0 -47 -24 -55
-43 -8 -21 -9 -21 -9 4 -1 23 -27 59 -44 59 -4 0 -7 -10 -7 -23z"/>
<path d="M2108 1663 c-10 -11 -18 -28 -18 -38 0 -15 -4 -14 -25 9 -29 31 -45
33 -45 7 0 -22 35 -51 61 -51 25 0 51 35 47 65 -3 27 -3 27 -20 8z"/>
<path d="M800 1566 c0 -15 11 -33 26 -45 24 -19 28 -19 55 -5 16 8 29 18 29
22 0 4 3 17 6 30 6 21 5 22 -19 11 -15 -7 -31 -24 -36 -38 -8 -23 -10 -23 -10
-5 -1 19 -29 54 -44 54 -4 0 -7 -11 -7 -24z"/>
<path d="M2030 1566 c0 -15 11 -33 26 -45 24 -19 29 -19 54 -6 19 10 29 24 32
45 3 16 2 30 -2 30 -11 0 -50 -40 -51 -53 0 -7 -4 -2 -9 10 -5 12 -18 27 -29
33 -19 9 -21 8 -21 -14z"/>
<path d="M887 1492 c-10 -10 -17 -27 -18 -38 0 -17 -1 -17 -11 2 -5 12 -21 27
-35 33 -24 11 -25 11 -19 -16 8 -31 31 -53 56 -53 25 0 60 38 60 65 0 30 -11
32 -33 7z"/>
<path d="M2030 1481 c0 -29 29 -61 56 -61 18 0 52 33 59 58 7 23 6 23 -23 8
-17 -9 -33 -24 -35 -33 -4 -15 -5 -14 -6 3 -1 20 -29 54 -44 54 -4 0 -7 -13
-7 -29z"/>
<path d="M902 1418 c-7 -7 -12 -23 -12 -37 l0 -25 -20 22 c-12 12 -30 22 -41
22 -17 0 -18 -3 -8 -22 15 -29 28 -38 55 -38 28 0 54 30 54 63 0 29 -9 34 -28
15z"/>
<path d="M2020 1404 c0 -41 18 -64 50 -64 26 0 60 29 60 52 0 17 -40 7 -54
-14 -15 -21 -16 -21 -16 -3 -1 20 -22 55 -34 55 -3 0 -6 -12 -6 -26z"/>
<path d="M920 1340 c-6 -12 -8 -31 -4 -43 6 -21 6 -21 -12 -6 -28 25 -64 34
-64 16 0 -22 34 -47 63 -47 19 0 30 8 40 28 23 49 2 98 -23 52z"/>
<path d="M1995 1337 c-9 -36 17 -77 50 -77 23 0 65 34 65 53 0 14 -53 -2 -69
-21 -12 -15 -13 -15 -8 6 3 13 -2 31 -13 45 l-18 22 -7 -28z"/>
<path d="M956 1274 c-3 -9 -6 -27 -6 -41 0 -25 -1 -25 -18 -10 -34 31 -74 17
-45 -15 25 -28 77 -24 91 8 12 25 7 74 -8 74 -4 0 -11 -7 -14 -16z"/>
<path d="M1965 1267 c-12 -44 8 -77 46 -77 29 0 58 21 59 43 0 12 -34 8 -56
-8 -20 -13 -21 -12 -17 8 2 12 -2 31 -11 42 -14 19 -15 19 -21 -8z"/>
<path d="M996 1195 c-4 -14 -4 -30 -1 -35 3 -4 -13 -6 -35 -3 -45 6 -53 -7
-16 -26 53 -29 107 14 84 65 -14 31 -24 30 -32 -1z"/>
<path d="M1918 1196 c-18 -41 3 -76 45 -76 31 0 57 14 57 32 0 12 -55 9 -68
-4 -8 -8 -10 -3 -6 24 8 44 -11 60 -28 24z"/>
<path d="M1048 1143 c0 -10 0 -26 0 -36 1 -10 -2 -16 -8 -12 -11 7 -60 -4 -60
-14 0 -16 50 -30 74 -22 27 11 40 55 23 83 -15 23 -27 23 -29 1z"/>
<path d="M1870 1139 c-26 -48 19 -102 66 -80 13 6 24 15 24 20 0 16 -38 23
-62 10 -19 -9 -21 -9 -10 2 14 15 16 69 2 69 -5 0 -14 -9 -20 -21z"/>
<path d="M1104 1096 c-4 -10 -2 -27 4 -37 16 -26 16 -26 -17 -21 -32 4 -52
-15 -30 -29 52 -33 109 34 70 82 -18 23 -20 23 -27 5z"/>
<path d="M1818 1096 c-45 -45 0 -114 57 -88 35 16 21 35 -21 30 -25 -3 -31 -1
-23 8 6 7 9 25 7 40 -3 27 -4 27 -20 10z"/>
<path d="M1170 1045 c0 -17 6 -37 13 -44 10 -10 9 -12 -3 -10 -20 4 -60 -10
-60 -21 0 -17 52 -21 76 -5 31 20 30 47 -1 82 l-24 28 -1 -30z"/>
<path d="M1748 1049 c-26 -15 -23 -65 5 -83 23 -15 67 -12 67 5 0 13 -42 28
-59 21 -11 -4 -11 0 2 18 29 41 21 60 -15 39z"/>
<path d="M1240 1012 c0 -11 7 -28 16 -36 14 -15 14 -16 -3 -16 -10 0 -27 -7
-37 -15 -18 -14 -18 -15 -1 -21 9 -4 29 -3 44 2 35 13 37 69 4 92 -21 13 -23
13 -23 -6z"/>
<path d="M1679 1017 c-27 -20 -33 -56 -13 -78 17 -18 74 -27 74 -11 0 14 -24
32 -43 32 -17 0 -17 2 -3 22 28 39 18 61 -15 35z"/>
<path d="M1397 974 c-12 -13 -8 -62 6 -67 21 -8 35 5 38 38 3 24 0 31 -16 33
-12 2 -24 0 -28 -4z"/>
<path d="M1461 961 c-13 -23 -4 -51 15 -51 9 0 14 11 14 29 0 37 -15 48 -29
22z"/>
<path d="M1509 978 c-1 -2 -2 -16 -3 -31 -2 -34 25 -54 44 -32 18 22 8 60 -17
63 -13 2 -24 2 -24 0z"/>
<path d="M1446 883 c-8 -21 -8 -23 8 -23 8 0 17 6 19 13 4 10 6 10 6 0 1 -14
31 -19 31 -5 -1 28 -54 42 -64 15z"/>
<path d="M1234 735 c-41 -21 -64 -64 -64 -120 0 -80 52 -135 127 -135 30 0 93
33 93 50 0 15 -21 12 -42 -7 -24 -22 -73 -21 -97 2 -28 24 -44 80 -36 122 12
66 83 107 116 67 10 -12 10 -20 1 -35 -16 -25 -15 -29 6 -29 39 0 57 55 27 80
-24 20 -96 23 -131 5z"/>
<path d="M1474 738 c-3 -5 4 -12 16 -15 24 -6 25 1 -28 -125 -20 -49 -42 -88
-49 -88 -6 0 -15 -4 -18 -10 -4 -6 13 -10 44 -10 28 0 51 5 51 10 0 6 -9 10
-20 10 -23 0 -24 1 -8 35 10 22 18 25 58 25 40 0 48 -3 58 -25 15 -33 15 -35
-2 -35 -8 0 -18 -4 -21 -10 -4 -6 15 -10 49 -10 31 0 56 5 56 10 0 6 -6 10
-14 10 -8 0 -31 42 -56 105 -23 57 -47 108 -53 113 -19 15 -57 21 -63 10z m65
-95 c8 -21 16 -44 18 -50 4 -9 -7 -13 -37 -13 -29 0 -40 4 -36 13 2 6 10 29
17 50 7 20 15 37 19 37 3 0 12 -17 19 -37z"/>
<path d="M2103 730 c-110 -67 -64 -250 64 -250 92 0 154 124 103 207 -37 61
-108 79 -167 43z m106 -17 c46 -37 46 -148 0 -194 -40 -40 -102 -14 -119 52
-29 106 49 198 119 142z"/>
<path d="M360 731 c0 -5 9 -11 20 -14 18 -5 20 -14 20 -105 0 -94 -1 -100 -22
-108 -16 -5 9 -9 76 -11 54 -2 100 -2 102 0 2 2 7 18 10 35 8 39 -12 44 -26 7
-8 -22 -16 -25 -55 -25 l-45 0 0 51 0 51 35 -3 c19 -2 34 1 34 6 0 6 -16 9
-34 8 l-35 -2 0 49 c0 50 0 50 33 50 37 0 57 -15 57 -43 0 -10 5 -17 11 -15 6
2 10 7 10 11 -1 4 -1 21 -1 37 l0 30 -95 0 c-52 0 -95 -4 -95 -9z"/>
<path d="M600 731 c0 -5 9 -11 20 -14 18 -5 20 -14 20 -102 0 -88 -2 -97 -20
-102 -45 -12 -15 -23 61 -23 64 0 89 4 114 20 41 25 59 68 52 121 -10 76 -64
109 -177 109 -38 0 -70 -4 -70 -9z m177 -46 c18 -20 23 -39 23 -79 0 -70 -25
-98 -83 -94 l-41 3 -1 104 -1 103 40 -5 c27 -4 49 -15 63 -32z"/>
<path d="M876 731 c-3 -5 3 -11 14 -14 18 -5 20 -14 20 -91 0 -74 3 -88 23
-111 31 -36 91 -43 135 -16 l32 21 0 96 c0 87 2 96 20 101 37 10 20 23 -30 23
-50 0 -67 -13 -30 -23 18 -5 20 -13 20 -89 0 -45 -4 -88 -8 -94 -24 -37 -93
-39 -112 -4 -6 10 -10 55 -10 100 0 73 2 82 20 87 11 3 20 9 20 14 0 12 -107
12 -114 0z"/>
<path d="M1657 733 c-4 -3 -7 -21 -7 -40 0 -23 5 -33 15 -33 8 0 15 8 15 18 0
23 19 42 42 42 16 0 18 -11 18 -104 0 -99 -1 -104 -22 -111 -21 -7 -20 -8 10
-12 17 -2 47 -2 65 0 29 4 30 5 10 12 -22 7 -23 12 -23 112 l0 104 27 -3 c19
-2 29 -10 33 -27 10 -43 30 -37 30 8 l0 41 -103 0 c-57 0 -107 -3 -110 -7z"/>
<path d="M1900 731 c0 -5 9 -11 20 -14 18 -5 20 -14 20 -106 0 -94 -1 -101
-20 -101 -11 0 -20 -4 -20 -10 0 -6 27 -10 60 -10 65 0 74 5 35 20 -24 9 -25
13 -25 94 0 98 5 116 32 116 10 0 16 5 13 10 -8 12 -115 13 -115 1z"/>
<path d="M2320 731 c0 -5 9 -11 20 -14 18 -5 20 -14 20 -105 0 -94 -1 -100
-22 -107 -22 -8 -22 -8 5 -12 15 -2 39 -2 55 0 26 4 26 4 5 12 -21 7 -23 13
-23 91 0 46 2 84 4 84 2 0 34 -43 72 -95 38 -52 75 -94 82 -95 9 0 12 29 12
111 0 102 2 111 20 116 33 9 11 23 -36 23 -45 0 -60 -14 -24 -23 18 -5 20 -14
20 -83 0 -43 -4 -74 -8 -68 -5 5 -32 39 -61 77 -29 37 -62 74 -74 82 -23 16
-67 20 -67 6z"/>
<path d="M1493 416 c3 -7 2 -19 -3 -26 -6 -9 -11 -7 -19 9 -7 11 -19 21 -29
21 -10 0 -13 -3 -6 -8 20 -13 36 -53 30 -76 -4 -16 -1 -22 13 -22 16 0 18 6
14 31 -3 21 1 36 16 51 l20 22 -20 5 c-14 4 -19 1 -16 -7z"/>
<path d="M782 408 c-37 -37 11 -113 57 -88 12 6 21 15 21 20 0 6 -8 5 -19 -1
-30 -20 -53 -4 -49 33 2 26 8 34 27 36 19 3 22 0 17 -13 -4 -11 -2 -15 6 -13
7 3 13 11 13 19 0 18 -56 24 -73 7z"/>
<path d="M880 399 c-15 -27 -5 -66 21 -79 45 -25 94 51 57 88 -20 20 -66 15
-78 -9z m65 -29 c0 -29 -4 -36 -23 -38 -26 -4 -37 17 -28 54 5 19 12 25 29 22
18 -2 22 -9 22 -38z"/>
<path d="M995 365 c0 -36 4 -55 12 -55 8 0 10 13 7 38 l-4 37 14 -30 c8 -16
17 -30 21 -30 4 0 13 14 21 30 l14 30 -3 -32 c-2 -18 0 -33 5 -33 4 0 11 -1
14 -2 4 -2 7 21 8 50 1 63 -16 70 -40 15 l-16 -38 -15 38 c-22 54 -38 47 -38
-18z"/>
<path d="M1135 367 c0 -41 3 -53 16 -54 13 -1 15 7 11 48 -4 41 -2 49 12 49
19 0 22 -36 4 -44 -7 -3 -4 -5 7 -3 14 2 20 10 20 27 0 21 -5 25 -35 28 l-35
3 0 -54z"/>
<path d="M1243 414 c3 -3 -3 -26 -14 -51 -23 -54 -23 -53 -3 -53 11 0 14 6 9
20 -5 17 -2 20 20 20 20 0 26 -4 21 -15 -3 -10 1 -15 13 -15 17 0 16 4 -6 50
-13 28 -29 50 -35 50 -6 0 -9 -3 -5 -6z"/>
<path d="M1326 368 c1 -29 6 -54 12 -56 6 -2 8 13 5 40 l-5 43 26 -30 c14 -16
25 -33 26 -37 0 -5 4 -8 9 -8 5 0 11 23 13 50 2 31 -1 50 -8 50 -6 0 -9 -14
-7 -32 l4 -33 -29 33 c-16 17 -33 32 -38 32 -5 0 -8 -23 -8 -52z"/>
<path d="M1577 413 c-14 -14 -6 -34 18 -45 27 -12 34 -38 10 -38 -8 0 -15 5
-15 10 0 6 -4 10 -10 10 -18 0 -11 -28 9 -33 23 -6 51 10 51 28 0 8 -11 22
-25 31 -14 9 -25 20 -25 25 0 14 28 11 33 -3 2 -7 8 -10 12 -6 4 4 4 11 0 17
-7 12 -48 15 -58 4z"/>
<path d="M1665 367 c0 -57 4 -61 53 -51 12 2 22 12 22 21 0 13 -3 14 -12 5
-26 -26 -40 -14 -36 33 2 35 0 45 -12 45 -11 0 -15 -13 -15 -53z"/>
<path d="M1763 408 c-22 -28 -22 -48 0 -74 19 -22 26 -24 48 -15 30 11 45 52
29 81 -12 23 -62 27 -77 8z m61 -20 c14 -23 -3 -53 -30 -53 -20 0 -31 33 -20
61 7 19 35 14 50 -8z"/>
<path d="M1870 400 c-24 -44 12 -96 57 -84 29 8 38 54 11 54 -15 0 -18 -5 -13
-20 5 -16 2 -20 -14 -20 -25 0 -39 43 -21 65 16 19 40 19 40 0 0 -8 5 -15 11
-15 6 0 9 8 7 18 -5 27 -64 29 -78 2z"/>
<path d="M1995 407 c3 -7 -3 -29 -14 -49 -19 -38 -18 -48 6 -48 10 0 12 6 8
21 -6 17 -3 20 17 17 14 -2 22 -9 20 -19 -1 -9 5 -16 13 -16 16 0 15 12 -11
74 -13 30 -50 50 -39 20z"/>
<path d="M2078 411 c9 -5 13 -23 11 -51 -2 -26 1 -45 8 -47 8 -3 10 9 6 39
l-5 43 28 -37 c27 -37 51 -51 41 -24 -3 7 -2 30 3 50 7 32 6 36 -11 36 -16 0
-18 -3 -9 -19 24 -47 5 -55 -25 -11 -11 17 -29 30 -40 30 -15 0 -17 -3 -7 -9z"/>
</g>
</svg>
