<?xml version="1.0" standalone="no"?>
<!DOCTYPE svg PUBLIC "-//W3C//DTD SVG 20010904//EN"
 "http://www.w3.org/TR/2001/REC-SVG-20010904/DTD/svg10.dtd">
<svg version="1.0" xmlns="http://www.w3.org/2000/svg"
 width="352.000000pt" height="263.000000pt" viewBox="0 0 352.000000 263.000000"
 preserveAspectRatio="xMidYMid meet">

<g transform="translate(0.000000,263.000000) scale(0.100000,-0.100000)"
fill="#000000" stroke="none">
<path d="M2010 2557 c-87 -36 -211 -124 -340 -242 -35 -32 -56 -43 -93 -48
-111 -15 -352 -173 -556 -363 -158 -147 -417 -420 -492 -519 -178 -232 -384
-600 -440 -785 -31 -103 -31 -191 1 -225 43 -46 121 -30 215 45 22 17 108 99
191 181 l151 150 50 -7 c78 -10 134 25 385 238 70 59 132 108 137 108 5 0 11
-9 14 -20 7 -29 49 -26 89 7 18 15 83 73 143 128 168 155 360 322 465 407 108
86 420 301 420 289 0 -20 -160 -189 -253 -269 -155 -133 -257 -233 -257 -254
0 -26 28 -34 56 -17 12 8 103 91 201 184 237 226 653 538 681 511 17 -17 -411
-401 -782 -702 -93 -75 -221 -179 -284 -231 -67 -56 -184 -139 -285 -200 -308
-188 -422 -266 -752 -512 -216 -162 -325 -266 -325 -310 0 -126 244 11 689
387 97 82 259 215 361 297 102 82 232 188 290 235 58 48 137 105 175 127 485
280 954 496 1443 663 97 34 152 58 152 66 0 8 -2 14 -4 14 -11 0 -381 -132
-486 -173 -274 -107 -655 -286 -899 -421 -46 -25 -85 -46 -88 -46 -13 0 20 30
130 119 386 311 769 688 742 730 -24 40 -139 -19 -373 -191 -51 -38 -101 -72
-110 -76 -16 -5 -15 -4 1 18 9 14 25 40 34 58 16 30 16 33 0 49 -16 16 -20 15
-64 -17 -27 -19 -111 -76 -188 -128 -171 -116 -295 -212 -485 -375 -80 -69
-147 -123 -149 -121 -7 6 214 250 368 406 85 87 152 160 148 164 -23 23 -77
-23 -322 -269 -143 -144 -285 -284 -315 -311 -30 -27 -71 -63 -90 -80 -242
-216 -518 -416 -574 -416 -21 0 -20 14 1 31 18 16 657 687 769 809 123 134
431 525 533 677 63 94 111 186 111 214 0 44 -56 50 -140 16z m110 -17 c0 -24
-33 -85 -102 -192 -92 -140 -422 -556 -554 -699 -190 -205 -766 -799 -775
-799 -16 0 -10 50 13 103 31 74 201 378 261 467 82 123 184 258 285 379 102
122 393 421 410 421 13 0 32 -54 32 -94 0 -17 4 -38 10 -46 27 -43 25 83 -3
139 l-15 31 85 77 c106 97 216 180 268 204 45 20 85 24 85 9z m-710 -472
c-260 -260 -459 -516 -624 -801 -164 -284 -199 -374 -177 -452 9 -35 9 -35
-82 -124 -51 -49 -126 -118 -167 -155 -76 -68 -190 -133 -209 -121 -17 10 -13
82 10 167 47 174 282 594 447 798 146 181 453 491 611 618 68 54 309 212 325
212 5 0 -56 -64 -134 -142z m-90 -1261 c-8 -8 -80 -67 -160 -132 -80 -65 -176
-146 -215 -180 -199 -174 -493 -381 -512 -361 -27 27 485 428 801 629 90 57
113 69 86 44z"/>
</g>
</svg>
